<svg viewBox="0 0 320 100" xmlns="http://www.w3.org/2000/svg" xmlns:xlink="http://www.w3.org/1999/xlink"><defs><linearGradient x1="0%" y1="0%" x2="0%" y2="100%" id="a"><stop stop-color="#2a8bcb" offset="0%"/><stop stop-color="#fff6db" offset="100%"/></linearGradient></defs><path fill="url(#a)" d="M0 0h320v100h-320z"/><path d="M180 46l-20-20-20 20h8v28h24v-28h8zm-14 12c0 3-3 6-7 6s-5-2-5-3c0-2 2-4 4-4 0 2 1 3 2 3s2-1 2-3c0-4-6-7-6-8s3-3 4-3 4 1 5 2l1 4c-3-2-6-3-8-3 3 2 8 6 8 9z" fill="#fff" id="b"/><use xlink:href="#b" x="-48" y="50" opacity=".2" transform="scale(.8)"/><use xlink:href="#b" x="48" y="50" opacity=".1" transform="scale(.6)"/><use xlink:href="#b" x="84" y="60" opacity=".2" transform="scale(.8)"/><use xlink:href="#b" x="220" y="60" opacity=".1" transform="scale(.6)"/></svg>